<?xml version="1.0" encoding="utf-8"?>
<!-- Generator: Adobe Illustrator 26.2.1, SVG Export Plug-In . SVG Version: 6.00 Build 0)  -->
<svg version="1.1" id="Layer_1" xmlns="http://www.w3.org/2000/svg" xmlns:xlink="http://www.w3.org/1999/xlink" x="0px" y="0px"
	 viewBox="0 0 20 20" style="enable-background:new 0 0 20 20;" xml:space="preserve">
<style type="text/css">
	.st0{fill:#FFFFFF;}
	.st1{fill:#B5B5B5;}
	.st2{fill:#787878;}
</style>
<g id="Layer_1_00000081608018103029659810000010645334213094764964_">
	<g>
		<circle class="st0" cx="10" cy="10" r="10"/>
		<polygon class="st1" points="9.1,16.5 10.9,16.5 10.5,13.4 10.5,13.4 10.5,13.4 10.9,12.6 9.1,12.6 9.5,13.4 9.5,13.4 		"/>
		<path class="st2" d="M14.1,7.1C14.1,4.8,12.2,3,10,3S5.9,4.8,5.9,7.1s1.8,4.1,4.1,4.1S14.1,9.3,14.1,7.1z"/>
		<path class="st2" d="M12.4,11.5H7.6c-2.1,0-3.8,1.7-3.8,3.8v2.5C5.5,19.2,7.7,20,10,20s4.5-0.8,6.2-2.1v-2.5
			C16.2,13.2,14.5,11.5,12.4,11.5z M11.5,16.5H11H9.1H8.5l-0.9-4.6c0.1,0,0.2,0,0.3,0h4.3c0.1,0,0.2,0,0.3,0L11.5,16.5z"/>
	</g>
</g>
<g id="Layer_2_00000125567380358850963990000011633689025555884929_">
	<g>
		<path class="st0" d="M10,1.5c4.7,0,8.5,3.8,8.5,8.5s-3.8,8.5-8.5,8.5S1.5,14.7,1.5,10S5.3,1.5,10,1.5 M10-0.1
			C4.5-0.1-0.1,4.5-0.1,10S4.5,20.1,10,20.1S20.1,15.5,20.1,10S15.5-0.1,10-0.1L10-0.1z"/>
	</g>
</g>
<g id="Layer_3">
	<g>
		<path class="st0" d="M10,1.5c4.7,0,8.5,3.8,8.5,8.5s-3.8,8.5-8.5,8.5S1.5,14.7,1.5,10S5.3,1.5,10,1.5 M10-0.1
			C4.5-0.1-0.1,4.5-0.1,10S4.5,20.1,10,20.1S20.1,15.5,20.1,10S15.5-0.1,10-0.1L10-0.1z"/>
	</g>
</g>
</svg>
