<?xml version="1.0" encoding="utf-8"?>
<!-- Generator: Adobe Illustrator 26.2.1, SVG Export Plug-In . SVG Version: 6.00 Build 0)  -->
<svg version="1.1" id="Layer_3" xmlns="http://www.w3.org/2000/svg" xmlns:xlink="http://www.w3.org/1999/xlink" x="0px" y="0px"
	 viewBox="0 0 20 20" style="enable-background:new 0 0 20 20;" xml:space="preserve">
<style type="text/css">
	.st0{fill:#EA4435;}
	.st1{fill:#F9BC15;}
	.st2{fill:#547DBF;}
	.st3{fill:#34A851;}
</style>
<g id="Layer_3">
	<g>
		<g>
			<g>
				<path class="st0" d="M10,19.89H5.06C2.27,19.89,0,17.67,0,14.95v-2.29h2.18v2.29c0,1.52,1.29,2.75,2.88,2.75H10V19.89z"/>
			</g>
			<g>
				<path class="st1" d="M20,11.11h-2.18V7.26c0-1.52-1.29-2.75-2.88-2.75h-0.35l-2.27-2.18h2.27h0.35c2.79,0,5.06,2.21,5.06,4.93
					V11.11z"/>
			</g>
			<path class="st2" d="M12.15,0.11H7.74L6.09,2.33H5.06C2.27,2.33,0,4.54,0,7.26v2.08h2.18V7.26c0-1.52,1.29-2.75,2.88-2.75h9.54
				V3.29L12.15,0.11z"/>
			<circle class="st2" cx="10" cy="11.11" r="3.26"/>
			<g>
				<circle class="st3" cx="16.59" cy="16.63" r="2.32"/>
			</g>
		</g>
	</g>
</g>
</svg>
