<?xml version="1.0" encoding="utf-8"?>
<!-- Generator: Adobe Illustrator 26.2.1, SVG Export Plug-In . SVG Version: 6.00 Build 0)  -->
<svg version="1.1" id="Layer_1" xmlns="http://www.w3.org/2000/svg" xmlns:xlink="http://www.w3.org/1999/xlink" x="0px" y="0px"
	 viewBox="0 0 20 20" style="enable-background:new 0 0 20 20;" xml:space="preserve">
<style type="text/css">
	.st0{fill:#9E9D9E;}
</style>
<path class="st0" d="M20,18.36l-6.17-6.29c0.83-1.24,1.32-2.74,1.32-4.35c0-4.26-3.4-7.72-7.58-7.72C3.4,0,0,3.46,0,7.72
	c0,4.26,3.4,7.72,7.58,7.72c1.78,0,3.41-0.63,4.7-1.68L18.4,20L20,18.36z M7.58,13.13c-2.93,0-5.31-2.43-5.31-5.41
	s2.38-5.41,5.31-5.41s5.31,2.43,5.31,5.41S10.5,13.13,7.58,13.13z"/>
</svg>
