<?xml version="1.0" encoding="utf-8"?>
<!-- Generator: Adobe Illustrator 26.2.1, SVG Export Plug-In . SVG Version: 6.00 Build 0)  -->
<svg version="1.1" id="Layer_1" xmlns="http://www.w3.org/2000/svg" xmlns:xlink="http://www.w3.org/1999/xlink" x="0px" y="0px"
	 viewBox="0 0 14.18 20" style="enable-background:new 0 0 14.18 20;" xml:space="preserve">
<style type="text/css">
	.st0{fill:#34A851;}
	.st1{fill:#F9BC15;}
	.st2{fill:#EA4435;}
	.st3{fill:#547DBF;}
</style>
<g>
	<g>
		<rect x="6.09" y="16.09" class="st0" width="1.99" height="3.91"/>
	</g>
	<g>
		<path class="st1" d="M7.09,17.09C3.18,17.09,0,13.91,0,10h1.99c0,2.81,2.29,5.09,5.09,5.09c2.81,0,5.09-2.29,5.09-5.09h1.99
			C14.18,13.91,11,17.09,7.09,17.09z"/>
	</g>
	<g>
		<path class="st2" d="M7.09,17.09c-1.92,0-3.72-0.76-5.07-2.13l1.43-1.39c0.97,0.99,2.26,1.53,3.64,1.53
			c2.81,0,5.09-2.29,5.09-5.09h1.99C14.18,13.91,11,17.09,7.09,17.09z"/>
	</g>
	<path class="st3" d="M7.06,13.05L7.06,13.05c-1.7,0-3.07-1.37-3.07-3.07v-6.9C3.99,1.37,5.37,0,7.06,0h0c1.7,0,3.07,1.37,3.07,3.07
		v6.9C10.13,11.67,8.76,13.05,7.06,13.05z"/>
</g>
</svg>
